<mxfile host="app.diagrams.net" modified="2023-12-20T08:00:28.979Z" agent="Mozilla/5.0 (Windows NT 10.0; Win64; x64) AppleWebKit/537.36 (KHTML, like Gecko) Chrome/120.0.0.0 Safari/537.36" etag="6eErQ4vNLIwSgBoo30r7" version="22.1.11" type="github">
  <diagram name="第 1 页" id="QnRPfCu3eUmTLWa5w4hk">
    <mxGraphModel dx="2443" dy="838" grid="1" gridSize="10" guides="1" tooltips="1" connect="1" arrows="1" fold="1" page="1" pageScale="1" pageWidth="827" pageHeight="1169" background="none" math="0" shadow="0">
      <root>
        <mxCell id="0" />
        <mxCell id="1" parent="0" />
        <mxCell id="7Vvmy7n1U0M0TT0j5RFg-15" value="web service" style="swimlane;whiteSpace=wrap;html=1;fontSize=20;startSize=40;labelBackgroundColor=none;rounded=0;" vertex="1" parent="1">
          <mxGeometry x="350" y="80" width="965" height="670" as="geometry" />
        </mxCell>
        <mxCell id="7Vvmy7n1U0M0TT0j5RFg-13" value="&lt;p style=&quot;margin:0px;margin-top:4px;text-align:center;&quot;&gt;&amp;lt;&amp;lt;interface&amp;gt;&amp;gt;&lt;br&gt;&lt;b&gt;MQserver&lt;/b&gt;&lt;/p&gt;&lt;hr&gt;&lt;p style=&quot;margin:0px;margin-top:4px;margin-left:10px;text-align:left;&quot;&gt;+ pushMessageToMQ(MessageDTO):void&lt;/p&gt;&lt;p style=&quot;margin:0px;margin-top:4px;margin-left:10px;text-align:left;&quot;&gt;&lt;br&gt;&lt;/p&gt;" style="shape=rect;html=1;overflow=fill;whiteSpace=wrap;labelBackgroundColor=none;rounded=0;" vertex="1" parent="7Vvmy7n1U0M0TT0j5RFg-15">
          <mxGeometry x="500" y="70" width="245" height="70" as="geometry" />
        </mxCell>
        <mxCell id="7Vvmy7n1U0M0TT0j5RFg-5" value="&lt;p style=&quot;margin:0px;margin-top:4px;text-align:center;&quot;&gt;&amp;lt;&amp;lt;interface&amp;gt;&amp;gt;&lt;br&gt;&lt;b style=&quot;border-color: var(--border-color);&quot;&gt;Transform&lt;/b&gt;&lt;br&gt;&lt;/p&gt;&lt;hr&gt;&lt;p style=&quot;margin:0px;margin-top:4px;margin-left:10px;text-align:left;&quot;&gt;+ doTransformData(MessageDTO): MessageDTO&lt;/p&gt;&lt;p style=&quot;margin:0px;margin-top:4px;margin-left:10px;text-align:left;&quot;&gt;- isTransformed(MessageDTO): boolean&lt;/p&gt;" style="shape=rect;html=1;overflow=fill;whiteSpace=wrap;labelBackgroundColor=none;rounded=0;" vertex="1" parent="7Vvmy7n1U0M0TT0j5RFg-15">
          <mxGeometry x="70" y="50" width="285" height="90" as="geometry" />
        </mxCell>
        <mxCell id="7Vvmy7n1U0M0TT0j5RFg-8" value="&lt;p style=&quot;margin:0px;margin-top:4px;text-align:center;&quot;&gt;&amp;lt;&amp;lt;interface&amp;gt;&amp;gt;&lt;br&gt;&lt;b&gt;SAPOperation&lt;/b&gt;&lt;/p&gt;&lt;hr&gt;&lt;p style=&quot;margin:0px;margin-top:4px;margin-left:10px;text-align:left;&quot;&gt;- callSapRfc(MessageDTO):String&lt;/p&gt;&lt;p style=&quot;margin:0px;margin-top:4px;margin-left:10px;text-align:left;&quot;&gt;+ returnResultToLegacySystem(MessageDTO):void&lt;/p&gt;&lt;p style=&quot;margin:0px;margin-top:4px;margin-left:10px;text-align:left;&quot;&gt;+ doSapQuery(MessageDTO): String&lt;/p&gt;&lt;p style=&quot;margin:0px;margin-top:4px;margin-left:10px;text-align:left;&quot;&gt;+ doLargeSapQuery(MessageDTO): String&lt;br&gt;&lt;/p&gt;" style="shape=rect;html=1;overflow=fill;whiteSpace=wrap;labelBackgroundColor=none;rounded=0;" vertex="1" parent="7Vvmy7n1U0M0TT0j5RFg-15">
          <mxGeometry x="340" y="270" width="290" height="130" as="geometry" />
        </mxCell>
        <mxCell id="7Vvmy7n1U0M0TT0j5RFg-17" value="&lt;p style=&quot;margin:0px;margin-top:4px;text-align:center;&quot;&gt;&amp;lt;&amp;lt;interface&amp;gt;&amp;gt;&lt;br&gt;&lt;b&gt;QueryLegacySystem&lt;/b&gt;&lt;/p&gt;&lt;hr&gt;&lt;p style=&quot;margin:0px;margin-top:4px;margin-left:10px;text-align:left;&quot;&gt;+ query(MessageDTO):string&lt;/p&gt;&lt;p style=&quot;margin:0px;margin-top:4px;margin-left:10px;text-align:left;&quot;&gt;+ callTransform(MessageDTO):message&lt;/p&gt;" style="shape=rect;html=1;overflow=fill;whiteSpace=wrap;labelBackgroundColor=none;rounded=0;" vertex="1" parent="7Vvmy7n1U0M0TT0j5RFg-15">
          <mxGeometry x="507" y="460" width="240" height="90" as="geometry" />
        </mxCell>
        <mxCell id="7Vvmy7n1U0M0TT0j5RFg-22" value="MessageDTO" style="swimlane;fontStyle=0;childLayout=stackLayout;horizontal=1;startSize=26;fillColor=none;horizontalStack=0;resizeParent=1;resizeParentMax=0;resizeLast=0;collapsible=1;marginBottom=0;whiteSpace=wrap;html=1;labelBackgroundColor=none;rounded=0;" vertex="1" parent="7Vvmy7n1U0M0TT0j5RFg-15">
          <mxGeometry x="730" y="250" width="174" height="130" as="geometry" />
        </mxCell>
        <mxCell id="7Vvmy7n1U0M0TT0j5RFg-23" value="+ Trans_Id: String" style="text;strokeColor=none;fillColor=none;align=left;verticalAlign=top;spacingLeft=4;spacingRight=4;overflow=hidden;rotatable=0;points=[[0,0.5],[1,0.5]];portConstraint=eastwest;whiteSpace=wrap;html=1;labelBackgroundColor=none;rounded=0;" vertex="1" parent="7Vvmy7n1U0M0TT0j5RFg-22">
          <mxGeometry y="26" width="174" height="26" as="geometry" />
        </mxCell>
        <mxCell id="7Vvmy7n1U0M0TT0j5RFg-32" value="+ IsTransform: boolean" style="text;strokeColor=none;fillColor=none;align=left;verticalAlign=top;spacingLeft=4;spacingRight=4;overflow=hidden;rotatable=0;points=[[0,0.5],[1,0.5]];portConstraint=eastwest;whiteSpace=wrap;html=1;labelBackgroundColor=none;rounded=0;" vertex="1" parent="7Vvmy7n1U0M0TT0j5RFg-22">
          <mxGeometry y="52" width="174" height="26" as="geometry" />
        </mxCell>
        <mxCell id="7Vvmy7n1U0M0TT0j5RFg-24" value="+ Sql_List: ArrayList&amp;lt;String&amp;gt;" style="text;strokeColor=none;fillColor=none;align=left;verticalAlign=top;spacingLeft=4;spacingRight=4;overflow=hidden;rotatable=0;points=[[0,0.5],[1,0.5]];portConstraint=eastwest;whiteSpace=wrap;html=1;labelBackgroundColor=none;rounded=0;" vertex="1" parent="7Vvmy7n1U0M0TT0j5RFg-22">
          <mxGeometry y="78" width="174" height="26" as="geometry" />
        </mxCell>
        <mxCell id="7Vvmy7n1U0M0TT0j5RFg-35" value="+ Target: String" style="text;strokeColor=none;fillColor=none;align=left;verticalAlign=top;spacingLeft=4;spacingRight=4;overflow=hidden;rotatable=0;points=[[0,0.5],[1,0.5]];portConstraint=eastwest;whiteSpace=wrap;html=1;labelBackgroundColor=none;rounded=0;" vertex="1" parent="7Vvmy7n1U0M0TT0j5RFg-22">
          <mxGeometry y="104" width="174" height="26" as="geometry" />
        </mxCell>
        <mxCell id="7Vvmy7n1U0M0TT0j5RFg-33" value="&lt;p style=&quot;margin:0px;margin-top:4px;text-align:center;&quot;&gt;&amp;lt;&amp;lt;interface&amp;gt;&amp;gt;&lt;br&gt;&lt;b&gt;GenerateTransId&lt;/b&gt;&lt;/p&gt;&lt;hr&gt;&lt;p style=&quot;margin:0px;margin-top:4px;margin-left:10px;text-align:left;&quot;&gt;+ createTransId():String&lt;/p&gt;" style="shape=rect;html=1;overflow=fill;whiteSpace=wrap;labelBackgroundColor=none;rounded=0;" vertex="1" parent="7Vvmy7n1U0M0TT0j5RFg-15">
          <mxGeometry x="80" y="560" width="140" height="70" as="geometry" />
        </mxCell>
        <mxCell id="7Vvmy7n1U0M0TT0j5RFg-38" value="" style="ellipse;whiteSpace=wrap;html=1;align=center;aspect=fixed;fillColor=none;strokeColor=none;resizable=0;perimeter=centerPerimeter;rotatable=0;allowArrows=0;points=[];outlineConnect=1;labelBackgroundColor=none;rounded=0;" vertex="1" parent="7Vvmy7n1U0M0TT0j5RFg-15">
          <mxGeometry x="260" y="335" width="10" height="10" as="geometry" />
        </mxCell>
        <mxCell id="7Vvmy7n1U0M0TT0j5RFg-39" value="Use" style="endArrow=open;endSize=12;dashed=1;html=1;rounded=0;labelBackgroundColor=none;fontColor=default;" edge="1" parent="7Vvmy7n1U0M0TT0j5RFg-15" source="7Vvmy7n1U0M0TT0j5RFg-5" target="7Vvmy7n1U0M0TT0j5RFg-22">
          <mxGeometry width="160" relative="1" as="geometry">
            <mxPoint x="320" y="270" as="sourcePoint" />
            <mxPoint x="200" y="100" as="targetPoint" />
          </mxGeometry>
        </mxCell>
        <mxCell id="7Vvmy7n1U0M0TT0j5RFg-40" value="&lt;b style=&quot;border-color: var(--border-color);&quot;&gt;SAPOperation&lt;/b&gt;" style="swimlane;fontStyle=1;align=center;verticalAlign=top;childLayout=stackLayout;horizontal=1;startSize=26;horizontalStack=0;resizeParent=1;resizeParentMax=0;resizeLast=0;collapsible=1;marginBottom=0;whiteSpace=wrap;html=1;labelBackgroundColor=none;rounded=0;" vertex="1" parent="7Vvmy7n1U0M0TT0j5RFg-15">
          <mxGeometry x="10" y="232" width="290" height="216" as="geometry" />
        </mxCell>
        <mxCell id="7Vvmy7n1U0M0TT0j5RFg-41" value="- g&lt;b style=&quot;border-color: var(--border-color); text-align: center;&quot;&gt;enerateTransId&lt;/b&gt;: G&lt;b style=&quot;border-color: var(--border-color); text-align: center;&quot;&gt;enerateTransId&lt;/b&gt;" style="text;strokeColor=none;fillColor=none;align=left;verticalAlign=top;spacingLeft=4;spacingRight=4;overflow=hidden;rotatable=0;points=[[0,0.5],[1,0.5]];portConstraint=eastwest;whiteSpace=wrap;html=1;labelBackgroundColor=none;rounded=0;" vertex="1" parent="7Vvmy7n1U0M0TT0j5RFg-40">
          <mxGeometry y="26" width="290" height="26" as="geometry" />
        </mxCell>
        <mxCell id="7Vvmy7n1U0M0TT0j5RFg-100" value="- mqServer: MQserver" style="text;strokeColor=none;fillColor=none;align=left;verticalAlign=top;spacingLeft=4;spacingRight=4;overflow=hidden;rotatable=0;points=[[0,0.5],[1,0.5]];portConstraint=eastwest;whiteSpace=wrap;html=1;labelBackgroundColor=none;rounded=0;" vertex="1" parent="7Vvmy7n1U0M0TT0j5RFg-40">
          <mxGeometry y="52" width="290" height="26" as="geometry" />
        </mxCell>
        <mxCell id="7Vvmy7n1U0M0TT0j5RFg-101" value="- transform: Transform" style="text;strokeColor=none;fillColor=none;align=left;verticalAlign=top;spacingLeft=4;spacingRight=4;overflow=hidden;rotatable=0;points=[[0,0.5],[1,0.5]];portConstraint=eastwest;whiteSpace=wrap;html=1;labelBackgroundColor=none;rounded=0;" vertex="1" parent="7Vvmy7n1U0M0TT0j5RFg-40">
          <mxGeometry y="78" width="290" height="26" as="geometry" />
        </mxCell>
        <mxCell id="7Vvmy7n1U0M0TT0j5RFg-42" value="" style="line;strokeWidth=1;fillColor=none;align=left;verticalAlign=middle;spacingTop=-1;spacingLeft=3;spacingRight=3;rotatable=0;labelPosition=right;points=[];portConstraint=eastwest;labelBackgroundColor=none;rounded=0;" vertex="1" parent="7Vvmy7n1U0M0TT0j5RFg-40">
          <mxGeometry y="104" width="290" height="8" as="geometry" />
        </mxCell>
        <mxCell id="7Vvmy7n1U0M0TT0j5RFg-49" value="- callSapRfc(MessageDTO):string" style="text;strokeColor=none;fillColor=none;align=left;verticalAlign=top;spacingLeft=4;spacingRight=4;overflow=hidden;rotatable=0;points=[[0,0.5],[1,0.5]];portConstraint=eastwest;whiteSpace=wrap;html=1;labelBackgroundColor=none;rounded=0;" vertex="1" parent="7Vvmy7n1U0M0TT0j5RFg-40">
          <mxGeometry y="112" width="290" height="26" as="geometry" />
        </mxCell>
        <mxCell id="7Vvmy7n1U0M0TT0j5RFg-43" value="+ returnResultToLegacySystem(MessageDTO):void" style="text;strokeColor=none;fillColor=none;align=left;verticalAlign=top;spacingLeft=4;spacingRight=4;overflow=hidden;rotatable=0;points=[[0,0.5],[1,0.5]];portConstraint=eastwest;whiteSpace=wrap;html=1;labelBackgroundColor=none;rounded=0;" vertex="1" parent="7Vvmy7n1U0M0TT0j5RFg-40">
          <mxGeometry y="138" width="290" height="26" as="geometry" />
        </mxCell>
        <mxCell id="7Vvmy7n1U0M0TT0j5RFg-88" value="+ doSapQuery(MessageDTO): String" style="text;strokeColor=none;fillColor=none;align=left;verticalAlign=top;spacingLeft=4;spacingRight=4;overflow=hidden;rotatable=0;points=[[0,0.5],[1,0.5]];portConstraint=eastwest;whiteSpace=wrap;html=1;labelBackgroundColor=none;rounded=0;" vertex="1" parent="7Vvmy7n1U0M0TT0j5RFg-40">
          <mxGeometry y="164" width="290" height="26" as="geometry" />
        </mxCell>
        <mxCell id="7Vvmy7n1U0M0TT0j5RFg-99" value="+ doLargeSapQuery(MessageDTO): String" style="text;strokeColor=none;fillColor=none;align=left;verticalAlign=top;spacingLeft=4;spacingRight=4;overflow=hidden;rotatable=0;points=[[0,0.5],[1,0.5]];portConstraint=eastwest;whiteSpace=wrap;html=1;labelBackgroundColor=none;rounded=0;" vertex="1" parent="7Vvmy7n1U0M0TT0j5RFg-40">
          <mxGeometry y="190" width="290" height="26" as="geometry" />
        </mxCell>
        <mxCell id="7Vvmy7n1U0M0TT0j5RFg-47" value="" style="endArrow=block;dashed=1;endFill=0;endSize=12;html=1;rounded=0;labelBackgroundColor=none;fontColor=default;" edge="1" parent="7Vvmy7n1U0M0TT0j5RFg-15" source="7Vvmy7n1U0M0TT0j5RFg-40" target="7Vvmy7n1U0M0TT0j5RFg-8">
          <mxGeometry width="160" relative="1" as="geometry">
            <mxPoint x="370" y="330" as="sourcePoint" />
            <mxPoint x="530" y="330" as="targetPoint" />
          </mxGeometry>
        </mxCell>
        <mxCell id="7Vvmy7n1U0M0TT0j5RFg-50" value="Use" style="endArrow=open;endSize=12;dashed=1;html=1;rounded=0;labelBackgroundColor=none;fontColor=default;" edge="1" parent="7Vvmy7n1U0M0TT0j5RFg-15" source="7Vvmy7n1U0M0TT0j5RFg-40" target="7Vvmy7n1U0M0TT0j5RFg-33">
          <mxGeometry width="160" relative="1" as="geometry">
            <mxPoint x="215" y="537" as="sourcePoint" />
            <mxPoint x="215" y="590" as="targetPoint" />
          </mxGeometry>
        </mxCell>
        <mxCell id="7Vvmy7n1U0M0TT0j5RFg-54" value="Use" style="endArrow=open;endSize=12;dashed=1;html=1;rounded=0;labelBackgroundColor=none;fontColor=default;" edge="1" parent="7Vvmy7n1U0M0TT0j5RFg-15" source="7Vvmy7n1U0M0TT0j5RFg-13" target="7Vvmy7n1U0M0TT0j5RFg-22">
          <mxGeometry width="160" relative="1" as="geometry">
            <mxPoint x="326" y="263.5866851595007" as="sourcePoint" />
            <mxPoint x="150" y="220" as="targetPoint" />
          </mxGeometry>
        </mxCell>
        <mxCell id="7Vvmy7n1U0M0TT0j5RFg-56" value="Use" style="endArrow=open;endSize=12;dashed=1;html=1;rounded=0;labelBackgroundColor=none;fontColor=default;" edge="1" parent="7Vvmy7n1U0M0TT0j5RFg-15" source="7Vvmy7n1U0M0TT0j5RFg-8" target="7Vvmy7n1U0M0TT0j5RFg-22">
          <mxGeometry width="160" relative="1" as="geometry">
            <mxPoint x="346" y="283.5866851595007" as="sourcePoint" />
            <mxPoint x="210" y="279.5866851595007" as="targetPoint" />
          </mxGeometry>
        </mxCell>
        <mxCell id="7Vvmy7n1U0M0TT0j5RFg-55" value="Use" style="endArrow=open;endSize=12;dashed=1;html=1;rounded=0;labelBackgroundColor=none;fontColor=default;" edge="1" parent="7Vvmy7n1U0M0TT0j5RFg-15" source="7Vvmy7n1U0M0TT0j5RFg-17" target="7Vvmy7n1U0M0TT0j5RFg-22">
          <mxGeometry width="160" relative="1" as="geometry">
            <mxPoint x="226" y="323.99668515950066" as="sourcePoint" />
            <mxPoint x="90" y="319.99668515950066" as="targetPoint" />
          </mxGeometry>
        </mxCell>
        <mxCell id="7Vvmy7n1U0M0TT0j5RFg-102" value="Use" style="endArrow=open;endSize=12;dashed=1;html=1;rounded=0;" edge="1" parent="7Vvmy7n1U0M0TT0j5RFg-15" source="7Vvmy7n1U0M0TT0j5RFg-40" target="7Vvmy7n1U0M0TT0j5RFg-5">
          <mxGeometry width="160" relative="1" as="geometry">
            <mxPoint x="326" y="333.5866851595007" as="sourcePoint" />
            <mxPoint x="190" y="329.5866851595007" as="targetPoint" />
          </mxGeometry>
        </mxCell>
        <mxCell id="7Vvmy7n1U0M0TT0j5RFg-57" value="client web service" style="swimlane;whiteSpace=wrap;html=1;fontSize=20;startSize=40;labelBackgroundColor=none;rounded=0;" vertex="1" parent="1">
          <mxGeometry x="-370" y="80" width="690" height="670" as="geometry" />
        </mxCell>
        <mxCell id="7Vvmy7n1U0M0TT0j5RFg-60" value="&lt;p style=&quot;margin:0px;margin-top:4px;text-align:center;&quot;&gt;&amp;lt;&amp;lt;interface&amp;gt;&amp;gt;&lt;br&gt;&lt;b&gt;SAPOperation&lt;/b&gt;&lt;/p&gt;&lt;hr&gt;&lt;p style=&quot;margin:0px;margin-top:4px;margin-left:10px;text-align:left;&quot;&gt;+ doSap&lt;span style=&quot;background-color: initial;&quot;&gt;Query&lt;/span&gt;(&lt;span style=&quot;background-color: initial;&quot;&gt;MessageDTO&lt;/span&gt;&lt;span style=&quot;background-color: initial;&quot;&gt;): String&lt;/span&gt;&lt;/p&gt;&lt;p style=&quot;margin:0px;margin-top:4px;margin-left:10px;text-align:left;&quot;&gt;&lt;span style=&quot;background-color: initial;&quot;&gt;+ doLargeSapQuery(MessageDTO): String&lt;/span&gt;&lt;/p&gt;&lt;p style=&quot;margin:0px;margin-top:4px;margin-left:10px;text-align:left;&quot;&gt;&lt;span style=&quot;background-color: initial;&quot;&gt;+ getQueryResult(String):&amp;nbsp;&lt;/span&gt;&lt;span style=&quot;background-color: initial;&quot;&gt;MessageDTO&lt;/span&gt;&lt;/p&gt;&lt;p style=&quot;margin:0px;margin-top:4px;margin-left:10px;text-align:left;&quot;&gt;&lt;span style=&quot;background-color: initial;&quot;&gt;+ getQueryResultFile(String): MessageDTO&lt;/span&gt;&lt;/p&gt;" style="shape=rect;html=1;overflow=fill;whiteSpace=wrap;labelBackgroundColor=none;rounded=0;" vertex="1" parent="7Vvmy7n1U0M0TT0j5RFg-57">
          <mxGeometry x="330" y="50" width="290" height="120" as="geometry" />
        </mxCell>
        <mxCell id="7Vvmy7n1U0M0TT0j5RFg-68" value="" style="ellipse;whiteSpace=wrap;html=1;align=center;aspect=fixed;fillColor=none;strokeColor=none;resizable=0;perimeter=centerPerimeter;rotatable=0;allowArrows=0;points=[];outlineConnect=1;labelBackgroundColor=none;rounded=0;" vertex="1" parent="7Vvmy7n1U0M0TT0j5RFg-57">
          <mxGeometry x="260" y="335" width="10" height="10" as="geometry" />
        </mxCell>
        <mxCell id="7Vvmy7n1U0M0TT0j5RFg-70" value="&lt;b style=&quot;border-color: var(--border-color);&quot;&gt;SAPOperation&lt;/b&gt;" style="swimlane;fontStyle=1;align=center;verticalAlign=top;childLayout=stackLayout;horizontal=1;startSize=26;horizontalStack=0;resizeParent=1;resizeParentMax=0;resizeLast=0;collapsible=1;marginBottom=0;whiteSpace=wrap;html=1;labelBackgroundColor=none;rounded=0;" vertex="1" parent="7Vvmy7n1U0M0TT0j5RFg-57">
          <mxGeometry x="330" y="240" width="290" height="156" as="geometry" />
        </mxCell>
        <mxCell id="7Vvmy7n1U0M0TT0j5RFg-73" value="+ doSapQuery(&lt;span style=&quot;border-color: var(--border-color); background-color: initial;&quot;&gt;MessageDTO&lt;/span&gt;&lt;span style=&quot;border-color: var(--border-color); background-color: initial;&quot;&gt;): String&lt;/span&gt;" style="text;strokeColor=none;fillColor=none;align=left;verticalAlign=top;spacingLeft=4;spacingRight=4;overflow=hidden;rotatable=0;points=[[0,0.5],[1,0.5]];portConstraint=eastwest;whiteSpace=wrap;html=1;labelBackgroundColor=none;rounded=0;" vertex="1" parent="7Vvmy7n1U0M0TT0j5RFg-70">
          <mxGeometry y="26" width="290" height="26" as="geometry" />
        </mxCell>
        <mxCell id="7Vvmy7n1U0M0TT0j5RFg-91" value="+ doLargeSapQuery(MessageDTO): String" style="text;strokeColor=none;fillColor=none;align=left;verticalAlign=top;spacingLeft=4;spacingRight=4;overflow=hidden;rotatable=0;points=[[0,0.5],[1,0.5]];portConstraint=eastwest;whiteSpace=wrap;html=1;labelBackgroundColor=none;rounded=0;" vertex="1" parent="7Vvmy7n1U0M0TT0j5RFg-70">
          <mxGeometry y="52" width="290" height="26" as="geometry" />
        </mxCell>
        <mxCell id="7Vvmy7n1U0M0TT0j5RFg-97" value="+ getQueryResult(String): MessageDTO" style="text;strokeColor=none;fillColor=none;align=left;verticalAlign=top;spacingLeft=4;spacingRight=4;overflow=hidden;rotatable=0;points=[[0,0.5],[1,0.5]];portConstraint=eastwest;whiteSpace=wrap;html=1;labelBackgroundColor=none;rounded=0;" vertex="1" parent="7Vvmy7n1U0M0TT0j5RFg-70">
          <mxGeometry y="78" width="290" height="26" as="geometry" />
        </mxCell>
        <mxCell id="7Vvmy7n1U0M0TT0j5RFg-98" value="+ getQueryResultFile(String): MessageDTO" style="text;strokeColor=none;fillColor=none;align=left;verticalAlign=top;spacingLeft=4;spacingRight=4;overflow=hidden;rotatable=0;points=[[0,0.5],[1,0.5]];portConstraint=eastwest;whiteSpace=wrap;html=1;labelBackgroundColor=none;rounded=0;" vertex="1" parent="7Vvmy7n1U0M0TT0j5RFg-70">
          <mxGeometry y="104" width="290" height="26" as="geometry" />
        </mxCell>
        <mxCell id="7Vvmy7n1U0M0TT0j5RFg-92" value="- sendFileToSap(ArrayList&amp;lt;File&amp;gt;):boolean" style="text;strokeColor=none;fillColor=none;align=left;verticalAlign=top;spacingLeft=4;spacingRight=4;overflow=hidden;rotatable=0;points=[[0,0.5],[1,0.5]];portConstraint=eastwest;whiteSpace=wrap;html=1;labelBackgroundColor=none;rounded=0;" vertex="1" parent="7Vvmy7n1U0M0TT0j5RFg-70">
          <mxGeometry y="130" width="290" height="26" as="geometry" />
        </mxCell>
        <mxCell id="7Vvmy7n1U0M0TT0j5RFg-75" value="" style="endArrow=block;dashed=1;endFill=0;endSize=12;html=1;rounded=0;exitX=0.5;exitY=0;exitDx=0;exitDy=0;labelBackgroundColor=none;fontColor=default;" edge="1" parent="7Vvmy7n1U0M0TT0j5RFg-57" source="7Vvmy7n1U0M0TT0j5RFg-70" target="7Vvmy7n1U0M0TT0j5RFg-60">
          <mxGeometry width="160" relative="1" as="geometry">
            <mxPoint x="370" y="330" as="sourcePoint" />
            <mxPoint x="530" y="330" as="targetPoint" />
          </mxGeometry>
        </mxCell>
        <mxCell id="7Vvmy7n1U0M0TT0j5RFg-11" value="&lt;p style=&quot;margin:0px;margin-top:4px;text-align:center;&quot;&gt;&amp;lt;&amp;lt;interface&amp;gt;&amp;gt;&lt;br&gt;&lt;b&gt;SAPFile&lt;/b&gt;&lt;/p&gt;&lt;hr&gt;&lt;p style=&quot;margin:0px;margin-top:4px;margin-left:10px;text-align:left;&quot;&gt;+ getSapFile(message):ArrayList&amp;lt;File&amp;gt;&lt;/p&gt;&lt;p style=&quot;margin:0px;margin-top:4px;margin-left:10px;text-align:left;&quot;&gt;+ sendFileToSap(ArrayList&amp;lt;File&amp;gt;):boolean&lt;/p&gt;&lt;p style=&quot;margin:0px;margin-top:4px;margin-left:10px;text-align:left;&quot;&gt;+ checkFileExists(&lt;span style=&quot;background-color: initial;&quot;&gt;ArrayList&amp;lt;String&amp;gt;&lt;/span&gt;&lt;span style=&quot;background-color: initial;&quot;&gt;):boolean&lt;/span&gt;&lt;/p&gt;" style="shape=rect;html=1;overflow=fill;whiteSpace=wrap;labelBackgroundColor=none;rounded=0;" vertex="1" parent="7Vvmy7n1U0M0TT0j5RFg-57">
          <mxGeometry x="355" y="470" width="255" height="110" as="geometry" />
        </mxCell>
        <mxCell id="7Vvmy7n1U0M0TT0j5RFg-81" value="MessageDTO" style="swimlane;fontStyle=0;childLayout=stackLayout;horizontal=1;startSize=26;fillColor=none;horizontalStack=0;resizeParent=1;resizeParentMax=0;resizeLast=0;collapsible=1;marginBottom=0;whiteSpace=wrap;html=1;labelBackgroundColor=none;rounded=0;" vertex="1" parent="7Vvmy7n1U0M0TT0j5RFg-57">
          <mxGeometry x="20" y="257" width="184" height="104" as="geometry" />
        </mxCell>
        <mxCell id="7Vvmy7n1U0M0TT0j5RFg-82" value="+ Trans_Id: String" style="text;strokeColor=none;fillColor=none;align=left;verticalAlign=top;spacingLeft=4;spacingRight=4;overflow=hidden;rotatable=0;points=[[0,0.5],[1,0.5]];portConstraint=eastwest;whiteSpace=wrap;html=1;labelBackgroundColor=none;rounded=0;" vertex="1" parent="7Vvmy7n1U0M0TT0j5RFg-81">
          <mxGeometry y="26" width="184" height="26" as="geometry" />
        </mxCell>
        <mxCell id="7Vvmy7n1U0M0TT0j5RFg-90" value="+ Sql_List: ArrayList&amp;lt;String&amp;gt;" style="text;strokeColor=none;fillColor=none;align=left;verticalAlign=top;spacingLeft=4;spacingRight=4;overflow=hidden;rotatable=0;points=[[0,0.5],[1,0.5]];portConstraint=eastwest;whiteSpace=wrap;html=1;labelBackgroundColor=none;rounded=0;" vertex="1" parent="7Vvmy7n1U0M0TT0j5RFg-81">
          <mxGeometry y="52" width="184" height="26" as="geometry" />
        </mxCell>
        <mxCell id="7Vvmy7n1U0M0TT0j5RFg-96" value="+ Result_List: ArrayList&amp;lt;String&amp;gt;" style="text;strokeColor=none;fillColor=none;align=left;verticalAlign=top;spacingLeft=4;spacingRight=4;overflow=hidden;rotatable=0;points=[[0,0.5],[1,0.5]];portConstraint=eastwest;whiteSpace=wrap;html=1;labelBackgroundColor=none;rounded=0;" vertex="1" parent="7Vvmy7n1U0M0TT0j5RFg-81">
          <mxGeometry y="78" width="184" height="26" as="geometry" />
        </mxCell>
        <mxCell id="7Vvmy7n1U0M0TT0j5RFg-89" value="Use" style="endArrow=open;endSize=12;dashed=1;html=1;rounded=0;" edge="1" parent="7Vvmy7n1U0M0TT0j5RFg-57" source="7Vvmy7n1U0M0TT0j5RFg-70" target="7Vvmy7n1U0M0TT0j5RFg-81">
          <mxGeometry width="160" relative="1" as="geometry">
            <mxPoint x="666" y="393.5866851595007" as="sourcePoint" />
            <mxPoint x="530" y="389.5866851595007" as="targetPoint" />
          </mxGeometry>
        </mxCell>
        <mxCell id="7Vvmy7n1U0M0TT0j5RFg-93" value="Use" style="endArrow=open;endSize=12;dashed=1;html=1;rounded=0;" edge="1" parent="7Vvmy7n1U0M0TT0j5RFg-57" source="7Vvmy7n1U0M0TT0j5RFg-92" target="7Vvmy7n1U0M0TT0j5RFg-11">
          <mxGeometry width="160" relative="1" as="geometry">
            <mxPoint x="666" y="393.5866851595007" as="sourcePoint" />
            <mxPoint x="530" y="389.5866851595007" as="targetPoint" />
          </mxGeometry>
        </mxCell>
        <mxCell id="7Vvmy7n1U0M0TT0j5RFg-103" value="&lt;font style=&quot;font-size: 20px;&quot;&gt;ETL&lt;/font&gt;" style="swimlane;whiteSpace=wrap;html=1;startSize=40;" vertex="1" parent="1">
          <mxGeometry x="1320" y="80" width="320" height="300" as="geometry" />
        </mxCell>
        <mxCell id="7Vvmy7n1U0M0TT0j5RFg-104" value="&lt;p style=&quot;margin:0px;margin-top:4px;text-align:center;&quot;&gt;&lt;i&gt;&amp;lt;&amp;lt;Interface&amp;gt;&amp;gt;&lt;/i&gt;&lt;br&gt;SAPRFConnector&lt;/p&gt;&lt;hr size=&quot;1&quot;&gt;&lt;p style=&quot;margin:0px;margin-left:4px;&quot;&gt;&lt;/p&gt;&lt;p style=&quot;margin:0px;margin-left:4px;&quot;&gt;+ callSAPRFC(MessageDTO): void&lt;br&gt;&lt;br&gt;&lt;/p&gt;" style="verticalAlign=top;align=left;overflow=fill;fontSize=12;fontFamily=Helvetica;html=1;whiteSpace=wrap;" vertex="1" parent="7Vvmy7n1U0M0TT0j5RFg-103">
          <mxGeometry x="65" y="100" width="205" height="80" as="geometry" />
        </mxCell>
        <mxCell id="7Vvmy7n1U0M0TT0j5RFg-106" value="&lt;font style=&quot;font-size: 20px;&quot;&gt;SAP RFC&lt;/font&gt;" style="swimlane;whiteSpace=wrap;html=1;startSize=40;" vertex="1" parent="1">
          <mxGeometry x="840" y="800" width="320" height="330" as="geometry" />
        </mxCell>
        <mxCell id="7Vvmy7n1U0M0TT0j5RFg-107" value="&lt;p style=&quot;margin:0px;margin-top:4px;text-align:center;&quot;&gt;&amp;lt;&amp;lt;interface&amp;gt;&amp;gt;&lt;br&gt;&lt;b&gt;QueryFile&lt;/b&gt;&lt;/p&gt;&lt;hr&gt;&lt;p style=&quot;margin:0px;margin-top:4px;margin-left:10px;text-align:left;&quot;&gt;+ getFile(message):ArrayList&amp;lt;File&amp;gt;&lt;/p&gt;&lt;p style=&quot;margin:0px;margin-top:4px;margin-left:10px;text-align:left;&quot;&gt;+ sendFile(ArrayList&amp;lt;File&amp;gt;):boolean&lt;/p&gt;&lt;p style=&quot;margin:0px;margin-top:4px;margin-left:10px;text-align:left;&quot;&gt;+ checkFileExists(&lt;span style=&quot;background-color: initial;&quot;&gt;ArrayList&amp;lt;String&amp;gt;&lt;/span&gt;&lt;span style=&quot;background-color: initial;&quot;&gt;):boolean&lt;/span&gt;&lt;/p&gt;" style="shape=rect;html=1;overflow=fill;whiteSpace=wrap;labelBackgroundColor=none;rounded=0;" vertex="1" parent="7Vvmy7n1U0M0TT0j5RFg-106">
          <mxGeometry x="20" y="120" width="255" height="110" as="geometry" />
        </mxCell>
        <mxCell id="7Vvmy7n1U0M0TT0j5RFg-108" value="&lt;font style=&quot;font-size: 20px;&quot;&gt;MQ Server&lt;/font&gt;" style="swimlane;whiteSpace=wrap;html=1;startSize=52;" vertex="1" parent="1">
          <mxGeometry x="1320" y="398" width="320" height="352" as="geometry" />
        </mxCell>
      </root>
    </mxGraphModel>
  </diagram>
</mxfile>
